<svg width="52" height="52" viewBox="0 0 52 52" fill="none" xmlns="http://www.w3.org/2000/svg">
<path d="M50.925 41.825C50.925 42.725 50.725 43.65 50.3 44.55C49.875 45.45 49.325 46.3 48.6 47.1C47.375 48.45 46.025 49.425 44.5 50.05C43 50.675 41.375 51 39.625 51C37.075 51 34.35 50.4 31.475 49.175C28.6 47.95 25.725 46.3 22.875 44.225C20 42.125 17.275 39.8 14.675 37.225C12.1 34.625 9.775 31.9 7.7 29.05C5.65 26.2 4 23.35 2.8 20.525C1.6 17.675 1 14.95 1 12.35C1 10.65 1.3 9.025 1.9 7.525C2.5 6 3.45 4.6 4.775 3.35C6.375 1.775 8.125 1 9.975 1C10.675 1 11.375 1.15 12 1.45C12.65 1.75 13.225 2.2 13.675 2.85L19.475 11.025C19.925 11.65 20.25 12.225 20.475 12.775C20.7 13.3 20.825 13.825 20.825 14.3C20.825 14.9 20.65 15.5 20.3 16.075C19.975 16.65 19.5 17.25 18.9 17.85L17 19.825C16.725 20.1 16.6 20.425 16.6 20.825C16.6 21.025 16.625 21.2 16.675 21.4C16.75 21.6 16.825 21.75 16.875 21.9C17.325 22.725 18.1 23.8 19.2 25.1C20.325 26.4 21.525 27.725 22.825 29.05C24.175 30.375 25.475 31.6 26.8 32.725C28.1 33.825 29.175 34.575 30.025 35.025C30.15 35.075 30.3 35.15 30.475 35.225C30.675 35.3 30.875 35.325 31.1 35.325C31.525 35.325 31.85 35.175 32.125 34.9L34.025 33.025C34.65 32.4 35.25 31.925 35.825 31.625C36.4 31.275 36.975 31.1 37.6 31.1C38.075 31.1 38.575 31.2 39.125 31.425C39.675 31.65 40.25 31.975 40.875 32.4L49.15 38.275C49.8 38.725 50.25 39.25 50.525 39.875C50.775 40.5 50.925 41.125 50.925 41.825Z" fill="black" stroke="black" stroke-width="1.5" stroke-miterlimit="10"/>
<path d="M42.25 18.5C42.25 17 41.075 14.7 39.325 12.825C37.725 11.1 35.6 9.75 33.5 9.75" stroke="black" stroke-width="1.5" stroke-linecap="round" stroke-linejoin="round"/>
<path d="M51 18.5C51 8.825 43.175 1 33.5 1" stroke="black" stroke-width="1.5" stroke-linecap="round" stroke-linejoin="round"/>
</svg>
